<svg width="24" height="29" viewBox="0 0 24 29" fill="none" xmlns="http://www.w3.org/2000/svg">
<g clip-path="url(#clip0_373_2014)">
<path d="M17.195 1.01281L16.9053 0.949841L11.9306 13.8161L2.96507 3.33244L2.71284 3.48818L9.77227 20.2414L9.77228 20.2415L9.77229 20.2415L9.7723 20.2416L9.77231 20.2417L9.77232 20.2417L9.77233 20.2418L9.77234 20.2418L9.77235 20.2419L9.77236 20.2419L9.77237 20.242L9.77238 20.2421L9.77239 20.2421L9.7724 20.2422L9.77241 20.2422L9.77242 20.2423L9.77243 20.2424L9.77244 20.2424L9.77245 20.2425L9.77246 20.2425L9.77247 20.2426L9.77248 20.2427L9.77249 20.2427L9.7725 20.2428L9.77251 20.2428L9.77252 20.2429L9.77253 20.2429L9.77254 20.243L9.77255 20.2431L9.77256 20.2431L9.77257 20.2432L9.77258 20.2432L9.77259 20.2433L9.7726 20.2434L9.77261 20.2434L9.77262 20.2435L9.77263 20.2435L9.77264 20.2436L9.77265 20.2436L9.77266 20.2437L9.77267 20.2438L9.77268 20.2438L9.77269 20.2439L9.7727 20.2439L9.77271 20.244L9.77272 20.244L9.77273 20.2441L9.77274 20.2442L9.77275 20.2442L9.77276 20.2443L9.77277 20.2443L9.77278 20.2444L9.77279 20.2444L9.7728 20.2445L9.77281 20.2446L9.77282 20.2446L9.77283 20.2447L9.77284 20.2447L9.77285 20.2448L9.77286 20.2449L9.77287 20.2449L9.77288 20.245L9.77289 20.245L9.7729 20.2451L9.77291 20.2451L9.77292 20.2452L9.77293 20.2453L9.77294 20.2453L9.77294 20.2454L9.77295 20.2454L9.77296 20.2455L9.77297 20.2455L9.77298 20.2456L9.77299 20.2457L9.773 20.2457L9.77301 20.2458L9.77302 20.2458L9.77303 20.2459L9.77304 20.246L9.77305 20.246L9.77306 20.2461L9.77307 20.2461L9.77309 20.2462L9.7731 20.2463L9.7731 20.2463L9.77312 20.2464L9.77313 20.2464L9.77314 20.2465L9.77315 20.2465L9.77316 20.2466L9.77317 20.2467L9.77318 20.2467L9.77319 20.2468L9.7732 20.2468L9.77321 20.2469L9.77322 20.247L9.77323 20.247L9.77324 20.2471L9.77325 20.2471L9.77326 20.2472L9.77327 20.2473L9.77328 20.2473L9.77329 20.2474L9.7733 20.2474L9.77331 20.2475L9.77332 20.2476L9.77333 20.2476L9.77334 20.2477L9.77335 20.2477L9.77336 20.2478L9.77337 20.2479L9.77338 20.2479L9.77339 20.248L9.7734 20.2481L9.77341 20.2481L9.77342 20.2482L9.77343 20.2482L9.77345 20.2483L9.77346 20.2484L9.77347 20.2484L9.77348 20.2485L9.77349 20.2486L9.7735 20.2486L9.77351 20.2487L9.77352 20.2487L9.77353 20.2488L9.77354 20.2489L9.77355 20.2489L9.77356 20.249L9.77357 20.2491L9.77359 20.2491L9.7736 20.2492L9.77361 20.2492L9.77362 20.2493L9.77363 20.2494L9.77364 20.2494L9.77365 20.2495L9.77366 20.2496L9.77367 20.2496L9.77368 20.2497L9.7737 20.2498L9.77371 20.2498L9.77372 20.2499L9.77373 20.25L9.77374 20.25L9.77375 20.2501L9.77376 20.2502L9.77377 20.2502L9.77379 20.2503L9.7738 20.2504L9.77381 20.2504L9.77382 20.2505L9.77383 20.2506L9.77384 20.2506L9.77385 20.2507L9.77387 20.2508L9.77388 20.2508L9.77389 20.2509L9.7739 20.251L9.77391 20.251L9.77393 20.2511L9.77394 20.2512L9.77395 20.2512L9.77396 20.2513L9.77397 20.2514L9.77398 20.2515L9.774 20.2515L9.77401 20.2516L9.77402 20.2517L9.77403 20.2517L9.77404 20.2518L9.77406 20.2519L9.77407 20.252L9.77408 20.252L9.77409 20.2521L9.77411 20.2522L9.77412 20.2522L9.77413 20.2523L9.77414 20.2524L9.77416 20.2525L9.77417 20.2525L9.77418 20.2526L9.77419 20.2527L9.77421 20.2528L9.77422 20.2528L9.77423 20.2529L9.77424 20.253L9.77426 20.2531L9.77427 20.2531L9.77428 20.2532L9.7743 20.2533L9.77431 20.2534L9.77432 20.2534L9.77433 20.2535L9.77435 20.2536L9.77436 20.2537L9.77437 20.2537L9.77439 20.2538L9.7744 20.2539L9.77441 20.254L9.77443 20.254L9.77444 20.2541L9.77445 20.2542L9.77447 20.2543L9.77448 20.2544L9.77449 20.2544L9.77451 20.2545L9.77452 20.2546L9.77454 20.2547L9.77455 20.2548L9.77456 20.2548L9.77458 20.2549L9.77459 20.255L9.77461 20.2551L9.77462 20.2552L9.77463 20.2553L9.77465 20.2553L9.77466 20.2554L9.77468 20.2555L9.77469 20.2556L9.7747 20.2557L9.77472 20.2558L9.77473 20.2558L9.77475 20.2559L9.77476 20.256L9.77478 20.2561L9.77479 20.2562L9.77481 20.2563L9.77482 20.2564L9.77484 20.2564L9.77485 20.2565L9.77487 20.2566L9.77488 20.2567L9.7749 20.2568L9.77491 20.2569L9.77493 20.257L9.77494 20.2571L9.77496 20.2571L9.77497 20.2572L9.77499 20.2573L9.775 20.2574L9.77502 20.2575L9.77503 20.2576L9.77505 20.2577L9.77507 20.2578L9.77508 20.2579L9.7751 20.258L9.77511 20.2581L9.77513 20.2582L9.77514 20.2582L9.77516 20.2583L9.77518 20.2584L9.77519 20.2585L9.77521 20.2586L9.77523 20.2587L9.77524 20.2588L9.77526 20.2589L9.77527 20.259L9.77529 20.2591L9.77531 20.2592L9.77532 20.2593L9.77534 20.2594L9.77536 20.2595L9.77538 20.2596L9.77539 20.2597L9.77541 20.2598L9.77543 20.2599L9.77544 20.26L9.77546 20.2601L9.77548 20.2602L9.7755 20.2603L9.77551 20.2604L9.77553 20.2605L9.77555 20.2606L9.77557 20.2607L9.77558 20.2608L9.7756 20.2609L9.77562 20.261L9.77564 20.2611L9.77565 20.2612L9.77567 20.2613L9.77569 20.2614L9.77571 20.2615L9.77573 20.2617L9.77575 20.2618L9.77576 20.2619L9.77578 20.262L9.7758 20.2621L9.77582 20.2622L9.77584 20.2623L9.77586 20.2624L9.77587 20.2625L9.77589 20.2626L9.77591 20.2627L9.77593 20.2629L9.77595 20.263L9.77597 20.2631L9.77599 20.2632L9.77601 20.2633L9.77603 20.2634L9.77605 20.2635L9.77607 20.2636L9.77609 20.2638L9.77611 20.2639C9.82004 20.5209 10.0215 20.6793 10.2585 20.7738C10.4965 20.8687 10.803 20.914 11.1277 20.9296C11.7799 20.961 12.5535 20.8747 13.1205 20.7778C13.6883 20.6807 14.4458 20.5002 15.0498 20.2516C15.3507 20.1277 15.6241 19.9827 15.8169 19.8155C15.9796 19.6744 16.1051 19.4983 16.112 19.2926L16.1122 19.2925L16.1192 19.1736L17.195 1.01281ZM12.2315 14.9309L16.2595 4.5111L15.4091 18.6298C15.073 18.5419 14.6456 18.5179 14.2165 18.5276C13.695 18.5394 13.1503 18.6017 12.7205 18.6751C12.2908 18.7486 11.7563 18.8707 11.2605 19.0328C10.8528 19.1661 10.4578 19.3307 10.17 19.525L4.71236 6.4777L11.9776 14.9743L12.062 14.9021L12.095 14.8965L12.128 14.8908L12.2315 14.9309ZM13.0026 20.0878C12.2039 20.2243 11.5556 20.2498 11.0997 20.2218C10.8712 20.2077 10.6948 20.1804 10.5735 20.1485C10.5547 20.1435 10.5376 20.1386 10.5222 20.1337C10.5325 20.1259 10.5439 20.1177 10.5564 20.1091C10.6573 20.0397 10.8129 19.9557 11.0238 19.8665C11.4443 19.6887 12.0692 19.4966 12.8779 19.3584C13.6765 19.2219 14.3248 19.1963 14.7807 19.2244C15.0092 19.2385 15.1856 19.2658 15.3069 19.2977C15.3236 19.302 15.3388 19.3064 15.3528 19.3107C15.3411 19.3194 15.3281 19.3286 15.3139 19.3383C15.2101 19.4086 15.0527 19.493 14.8419 19.5822C14.4212 19.7601 13.8012 19.9513 13.0026 20.0878Z" fill="url(#paint0_linear_373_2014)" stroke="url(#paint1_linear_373_2014)" stroke-width="0.3"/>
</g>
<defs>
<linearGradient id="paint0_linear_373_2014" x1="2.85107" y1="3.42993" x2="16.5617" y2="1.33198" gradientUnits="userSpaceOnUse">
<stop stop-color="#FFA500"/>
<stop offset="1" stop-color="#FF7300"/>
</linearGradient>
<linearGradient id="paint1_linear_373_2014" x1="2.85107" y1="3.42993" x2="16.5617" y2="1.33198" gradientUnits="userSpaceOnUse">
<stop stop-color="#FFA500"/>
<stop offset="1" stop-color="#FF7300"/>
</linearGradient>
<clipPath id="clip0_373_2014">
<rect width="20" height="25" fill="white" transform="translate(0 3.36938) rotate(-9.69899)"/>
</clipPath>
</defs>
</svg>
