<svg width="33" height="33" viewBox="0 0 33 33" fill="none" xmlns="http://www.w3.org/2000/svg">
<path d="M5.69357 32.25C5.45653 32.2487 5.22433 32.1668 5.02226 32.0131C4.82019 31.8594 4.65602 31.6399 4.54763 31.3784C4.43923 31.117 4.39079 30.8236 4.40756 30.5304C4.42434 30.2371 4.5057 29.9552 4.64277 29.7154C5.33618 28.4989 6.02798 26.9327 6.54593 25.4194C4.86937 24.1869 3.47736 22.6431 2.49066 20.9296C1.3518 18.9462 0.75 16.7099 0.75 14.4616C0.75 12.5035 1.18703 10.6072 2.04878 8.82865C2.86877 7.13556 4.03708 5.61993 5.52135 4.32392C8.52906 1.69697 12.517 0.25 16.75 0.25C20.983 0.25 24.9726 1.69537 27.9786 4.32392C29.4629 5.61993 30.6312 7.13436 31.4512 8.82865C32.313 10.6085 32.75 12.5035 32.75 14.4616C32.75 16.4196 32.313 18.3159 31.4512 20.0941C30.6312 21.7872 29.4629 23.3028 27.9786 24.5988C24.9726 27.2257 20.983 28.6727 16.75 28.6727C15.4037 28.6743 14.0602 28.5241 12.7358 28.2238C10.811 30.1462 8.78189 31.3442 6.01568 32.2014C5.91033 32.234 5.80214 32.2503 5.69357 32.25V32.25ZM5.6994 30.6428C8.41446 29.7997 10.2814 28.6731 12.1431 26.7484C12.2174 26.6715 12.3048 26.6162 12.3986 26.5867C12.4924 26.5571 12.5904 26.5541 12.6853 26.5777C14.024 26.9056 15.3855 27.0694 16.75 27.0668C18.76 27.0668 20.7085 26.7235 22.5411 26.0462C24.3018 25.3957 25.8806 24.4671 27.2331 23.2859C29.9556 20.9079 31.4551 17.7743 31.4551 14.4616C31.4551 11.1489 29.9556 8.01483 27.2331 5.6368C25.8806 4.45561 24.3018 3.52697 22.5411 2.87655C20.7085 2.19924 18.76 1.85596 16.75 1.85596C14.74 1.85596 12.7915 2.19924 10.9589 2.87655C9.19819 3.52697 7.62102 4.45561 6.26688 5.6368C3.54438 8.01483 2.04489 11.1485 2.04489 14.4616C2.04489 16.4012 2.5499 18.2641 3.54535 19.9977C4.51425 21.684 5.94089 23.1948 7.66828 24.3635C7.80631 24.4568 7.91226 24.6092 7.96634 24.7923C8.02043 24.9754 8.01896 25.1766 7.96222 25.3584C7.39506 27.1768 6.54917 29.1521 5.6994 30.6424V30.6428Z" fill="white"/>
</svg>
