<svg width="18" height="12" viewBox="0 0 18 12" fill="none" xmlns="http://www.w3.org/2000/svg">
<path fill-rule="evenodd" clip-rule="evenodd" d="M16.4048 5.21769C14.5286 6.93023 14.5223 6.68185 13.9762 3.83652C14.2251 3.84523 14.4758 3.75412 14.6668 3.54868C15.2227 2.94921 14.8414 1.95453 13.9866 1.95453C13.2107 1.95453 12.7627 2.85752 13.2461 3.46221C13.3082 3.53998 13.3796 3.60613 13.4574 3.66068C11.381 6.54896 11.0345 5.91988 9.44965 2.37294C9.60344 2.31085 9.74736 2.21394 9.87213 2.07988C10.6039 1.29122 10.0729 0 8.99932 0C7.92572 0 7.39472 1.2918 8.12651 2.07988C8.25128 2.21394 8.3952 2.31085 8.54899 2.37294C6.96412 5.91988 6.61767 6.54896 4.54127 3.66068C4.61904 3.60613 4.69042 3.53998 4.75251 3.46221C5.23534 2.85752 4.78733 1.95453 4.01202 1.95453C3.15662 1.95453 2.77535 2.94921 3.33188 3.54868C3.52338 3.7547 3.7735 3.84581 4.02246 3.83652C3.47638 6.68185 3.46999 6.92965 1.59381 5.21769C1.62514 5.18752 1.65416 5.1556 1.68202 5.12078C2.16485 4.5155 1.71684 3.6131 0.941523 3.6131C0.086126 3.6131 -0.295147 4.60777 0.261384 5.20667C0.459274 5.42023 0.722161 5.51076 0.979825 5.49335L1.7888 9.61829C6.5962 9.61829 11.4042 9.61829 16.2116 9.61829L17.0206 5.49335C17.2782 5.51076 17.5405 5.42023 17.739 5.20667C18.2949 4.60777 17.9137 3.6131 17.0589 3.6131C16.283 3.6131 15.835 4.51608 16.3184 5.12078C16.3462 5.1556 16.3752 5.1881 16.4066 5.21769H16.4048ZM15.9551 8.55804C15.8193 8.09204 15.8326 7.60863 15.9562 7.12696C15.6011 7.47457 15.1891 7.72817 14.7178 7.84366C14.8983 8.14369 14.9877 8.46112 14.9941 8.79365C15.2854 8.6329 15.6046 8.55165 15.9551 8.55804ZM13.8961 8.12221C13.4823 7.43917 13.2978 6.66502 13.2891 5.84676C12.8724 6.55128 12.3257 7.12928 11.6253 7.51345C12.0402 7.9133 12.3176 8.37988 12.4691 8.90565C12.8631 8.52612 13.3367 8.26091 13.8961 8.12221V8.12221ZM2.04356 8.55804C2.17935 8.09204 2.16543 7.60863 2.0424 7.12696C2.39814 7.47457 2.80959 7.72817 3.28081 7.84366C3.10033 8.14369 3.01096 8.46112 3.00457 8.79365C2.71325 8.6329 2.39407 8.55165 2.04356 8.55804ZM4.10255 8.12221C4.51632 7.43917 4.70086 6.66502 4.70957 5.84676C5.12624 6.5507 5.6729 7.12928 6.37335 7.51403C5.95842 7.91388 5.68103 8.38046 5.52956 8.90623C5.13552 8.5267 4.66198 8.26149 4.10255 8.12279V8.12221ZM7.49686 7.46645C8.23387 6.76019 8.71786 5.86533 8.99932 4.85789C9.28078 5.86533 9.76477 6.76019 10.5018 7.46645C9.85704 7.82277 9.36028 8.30676 8.99932 8.90623C8.63836 8.30734 8.1416 7.82277 7.49686 7.46645ZM16.4611 9.83475H1.53752V11.6523H16.4611V9.83475Z" fill="url(#paint0_linear_373_2020)"/>
<defs>
<linearGradient id="paint0_linear_373_2020" x1="0" y1="0" x2="17.3193" y2="0.605362" gradientUnits="userSpaceOnUse">
<stop stop-color="#FFA500"/>
<stop offset="1" stop-color="#FF7300"/>
</linearGradient>
</defs>
</svg>
