<svg width="26" height="44" viewBox="0 0 26 44" fill="none" xmlns="http://www.w3.org/2000/svg">
<path d="M21.6457 1.79755L21.6457 1.79733C22.3581 1.80941 23.052 2.02863 23.6424 2.42872C24.2452 2.83723 24.7128 3.41583 24.9858 4.09091C25.2588 4.76598 25.3248 5.50701 25.1754 6.21971C25.0261 6.93204 24.6684 7.58388 24.1477 8.09238C24.1475 8.09265 24.1472 8.09292 24.1469 8.09319L10.2239 21.6051L9.86511 21.9533L10.2133 22.3121L23.7262 36.2361C24.4031 36.9337 24.7753 37.8715 24.7607 38.8434C24.7461 39.8152 24.3461 40.7415 23.6486 41.4185C22.9511 42.0954 22.0132 42.4675 21.0413 42.4529C20.0695 42.4384 19.1432 42.0383 18.4663 41.3408L18.4661 41.3406L2.03753 24.4326L2.03734 24.4323C1.7017 24.0873 1.43742 23.6794 1.25964 23.2321C1.08185 22.7848 0.99405 22.3068 1.00126 21.8255C1.00847 21.3442 1.11056 20.869 1.30166 20.4272C1.49277 19.9854 1.76915 19.5857 2.11497 19.2509L2.11539 19.2505L19.0328 2.83259C19.7325 2.15551 20.672 1.78333 21.6455 1.79755C21.6456 1.79755 21.6456 1.79755 21.6457 1.79755Z" fill="#2C2C3F" stroke="#FFA500"/>
</svg>
